<svg width="225" height="225" viewBox="0 0 225 225" fill="none" xmlns="http://www.w3.org/2000/svg">
<rect width="225" height="225" fill="black"/>
<path d="M77.8585 18.378C55.464 26.7839 36.8244 42.9388 25.3216 63.9116C13.8187 84.8845 10.2147 109.286 15.1635 132.689C20.1122 156.091 33.2858 176.945 52.2941 191.466C71.3025 205.987 94.8863 213.213 118.767 211.834C142.647 210.454 165.242 200.56 182.452 183.947C199.662 167.334 210.347 145.103 212.568 121.286C214.789 97.469 208.4 73.645 194.558 54.136C180.717 34.6271 160.341 20.7259 137.128 14.9544L129.074 47.3484C144.539 51.1934 158.113 60.4543 167.334 73.4511C176.555 86.4479 180.812 102.32 179.332 118.186C177.852 134.053 170.734 148.864 159.269 159.931C147.803 170.999 132.751 177.59 116.842 178.509C100.933 179.428 85.2212 174.614 72.5579 164.94C59.8946 155.266 51.1183 141.373 47.8215 125.783C44.5247 110.192 46.9256 93.9357 54.5888 79.9636C62.252 65.9915 74.6696 55.2292 89.5888 49.6292L77.8585 18.378Z" fill="white"/>
<path d="M206.622 76.8585C198.216 54.464 182.061 35.8244 161.088 24.3216C140.116 12.8187 115.714 9.21474 92.3115 14.1635C68.9088 19.1122 48.0552 32.2858 33.5343 51.2941C19.0133 70.3025 11.787 93.8863 13.1664 117.767C14.5458 141.647 24.4395 164.242 41.0526 181.452C57.6656 198.662 79.8973 209.347 103.714 211.568C127.531 213.789 151.355 207.4 170.864 193.558C190.373 179.717 204.274 159.341 210.046 136.128L177.652 128.074C173.807 143.539 164.546 157.113 151.549 166.334C138.552 175.555 122.68 179.812 106.814 178.332C90.947 176.852 76.1363 169.734 65.0688 158.269C54.0012 146.803 47.41 131.751 46.4911 115.842C45.5721 99.9327 50.3863 84.2212 60.0601 71.5579C69.7339 58.8946 83.6265 50.1183 99.2174 46.8215C114.808 43.5247 131.064 45.9256 145.036 53.5888C159.008 61.252 169.771 73.6696 175.371 88.5888L206.622 76.8585Z" fill="#D9D9D9"/>
</svg>
