<svg width="200" height="200" viewBox="0 0 200 200" fill="none" xmlns="http://www.w3.org/2000/svg">
<path d="M64.8585 6.378C42.464 14.7839 23.8244 30.9388 12.3216 51.9116C0.81873 72.8845 -2.78526 97.2858 2.16348 120.689C7.11221 144.091 20.2858 164.945 39.2941 179.466C58.3025 193.987 81.8863 201.213 105.767 199.834C129.647 198.454 152.242 188.56 169.452 171.947C186.662 155.334 197.347 133.103 199.568 109.286C201.789 85.469 195.4 61.645 181.558 42.136C167.717 22.6271 147.341 8.7259 124.128 2.95444L116.074 35.3484C131.539 39.1934 145.113 48.4543 154.334 61.4511C163.555 74.4479 167.812 90.3195 166.332 106.186C164.852 122.053 157.734 136.864 146.269 147.931C134.803 158.999 119.751 165.59 103.842 166.509C87.9327 167.428 72.2212 162.614 59.5579 152.94C46.8946 143.266 38.1183 129.373 34.8215 113.783C31.5247 98.1918 33.9256 81.9357 41.5888 67.9636C49.252 53.9915 61.6696 43.2292 76.5888 37.6292L64.8585 6.378Z" fill="white"/>
<path d="M193.622 64.8585C185.216 42.464 169.061 23.8244 148.088 12.3216C127.116 0.81873 102.714 -2.78526 79.3115 2.16348C55.9088 7.11221 35.0552 20.2858 20.5343 39.2941C6.01333 58.3025 -1.21299 81.8863 0.16641 105.767C1.54581 129.647 11.4395 152.242 28.0526 169.452C44.6656 186.662 66.8973 197.347 90.7141 199.568C114.531 201.789 138.355 195.4 157.864 181.558C177.373 167.717 191.274 147.341 197.046 124.128L164.652 116.074C160.807 131.539 151.546 145.113 138.549 154.334C125.552 163.555 109.68 167.812 93.8138 166.332C77.947 164.852 63.1363 157.734 52.0688 146.269C41.0012 134.803 34.41 119.751 33.4911 103.842C32.5721 87.9327 37.3863 72.2212 47.0601 59.5579C56.7339 46.8946 70.6265 38.1183 86.2174 34.8215C101.808 31.5247 118.064 33.9256 132.036 41.5888C146.008 49.252 156.771 61.6696 162.371 76.5888L193.622 64.8585Z" fill="black"/>
</svg>
